<svg version="1.1" xmlns="http://www.w3.org/2000/svg" viewBox="0 0 16 16">
<defs id="defs1">
<style type="text/css" id="current-color-scheme">
.ColorScheme-Text {
color:#000;
}
</style>
</defs>
<path style="fill:currentColor;fill-opacity:1;stroke:none" id="path4" d="M 14,1 V 1.771484 C 13.450806,1.277657 12.73867,1.003491 12,1 c -1.65685,0 -3,1.34173 -3,3 0,1.65632 1.34315,3 3,3 0.738412,0 1.45052,-0.27446 2,-0.767578 V 7 h 1 V 1 Z m -2,1.002 c 1.10457,0 2,0.893836 2,2 0,1.10421 -0.895432,2 -2,2 -1.10457,0 -2,-0.895789 -2,-2 0,-1.10421 0.895432,-2 2,-2 z M 5.3828,4 1,15 h 1.35742 l 1.1895,-3 h 4.92773 l 1.1523,3 H 11 L 6.748,4 Z m 0.6797,1.3281 2.02148,5.67183 H 3.9414 Z" class="ColorScheme-Text"/>
</svg>
