<svg width="16" version="1.1" xmlns="http://www.w3.org/2000/svg" height="16">
<defs id="defs1">
<style type="text/css" id="current-color-scheme">
.ColorScheme-Text {
color:#000;
}
</style>
</defs>
<path style="fill:currentColor;fill-opacity:1;stroke:none" id="path3869" d="m 7.5,0.0137 c -4.13029,0 -7.48633,3.35603 -7.48633,7.48633 0,4.13029 3.35604,7.48633 7.48633,7.48633 4.13029,0 7.48633,-3.35604 7.48633,-7.48633 0,-4.1303 -3.35604,-7.48633 -7.48633,-7.48633 z m 0,1.9727 c 3.04941,0 5.51367,2.46426 5.51367,5.51367 0,3.04941 -2.46426,5.51367 -5.51367,5.51367 -3.04941,0 -5.51367,-2.46426 -5.51367,-5.51367 C 1.98633,4.45066 4.45059,1.9864 7.5,1.9864 Z m 2.9609,2.0078 a 0.50005,0.50005 0 0 0 -0.05469,0.00586 0.50005,0.50005 0 0 0 -0.25,0.15625 l -2.6562,2.6562 -1.6562,-1.6562 a 0.50005,0.50005 0 1 0 -0.6875,0.6875 l 2,2 a 0.50005,0.50005 0 0 0 0.6875,0 l 3,-3 A 0.50005,0.50005 0 0 0 10.461,3.9942004 Z" class="ColorScheme-Text"/>
</svg>
