<svg width="48" version="1.0" xmlns="http://www.w3.org/2000/svg" viewBox="0 0 48 48" height="48">
<g style="stroke:none" id="g4">
<path style="opacity:.6;fill:#fff" id="path4138" d="m 41.5265,11.6442 c -2.50682,-2.60896 -3.52878,-4.31623 -6.80526,-1.6641 l -2.6432,2.1395 c -1.91339,-1.21656 -4.27266,-1.98967 -6.55657,-2.28722 l -.7734,-3.1608 c -1.06281,-4.34352 -5.56072,-2.96423 -9.56247,-2.03584 -1.69525,0.493729 -1.92439,0.71005 -0.864299,4.8212 l .7814,3.0305 c -0.27667,0.244584 -0.6608,0.534879 -0.93747,0.779465 -1.15239,0.870881 -2.0602,2.01843 -2.86054,3.12028 l -3.0646,-.7903 c -4.13866,-1.06736 -4.27313,2.60291 -5.56123,5.98567 -0.658958,2.41397 -1.44846,2.98621 2.74309,4.09619 l 3.2178,.8521 c 0.072956,1.36489 0.406541,2.74582 1.00075,4.1428 l -3.4222,1.6114 c -2.54341,2.2485 -2.0295,2.77084 1.27654,6.47124 2.64645,3.38586 2.50743,4.31622 5.78392,1.6641 l 2.6432,-2.1395 c 1.91339,1.21656 4.27267,1.98966 6.55657,2.2872 l .7734,3.1608 c 1.06281,4.34352 2.34751,2.721 5.99081,1.70299 4.5497,-1.29778 5.36485,-0.89937 4.59327,-5.01904 l -.9387,-2.4998 c 0.27667,-0.244591 0.660801,-0.534882 0.937471,-0.779465 1.15239,-0.870881 2.0602,-2.01844 2.86055,-3.12027 l 3.0646,.7903 c 3.96887,1.58613 3.50537,-0.69613 4.55023,-4.21971 1.43696,-4.61221 2.74399,-5.97205 -1.19038,-6.9122 l -3.7595,.198 c -0.07295,-1.3649 -0.40654,-2.74582 -1.00075,-4.1428 l 2.6432,-2.1395 c 3.25074,-2.66518 3.0138,-3.33676 0.523798,-5.94314 z  m -13.9892,18.1427 c -2.6432,2.13952 -6.59833,1.79143 -8.84531,-0.806068 -2.24697,-2.59749 -1.79143,-6.59832 0.806071,-8.84531 2.64321,-2.13952 6.59832,-1.79143 8.84531,0.806071 2.13952,2.64321 1.79143,6.59832 -0.806071,8.84531 z "/>
<path style="fill:#919191" id="path9" d="m 40.5051,10.444 c -2.36199,-2.86241 -2.50744,-4.31622 -5.78392,-1.6641 l -2.6432,2.1395 c -1.91339,-1.21656 -4.27266,-1.98966 -6.55657,-2.28721 l -.7734,-3.1608 c -1.06281,-4.34352 -2.34751,-2.721 -5.99081,-1.70299 -4.06356,1.12101 -5.49604,0.377208 -4.43595,4.48836 l .7814,3.0305 c -0.27667,0.244584 -0.6608,0.534879 -0.93747,0.779465 -1.15239,0.870881 -2.0602,2.01843 -2.86054,3.12028 l -3.0646,-.7903 c -4.13866,-1.06736 -3.50537,0.696132 -4.55023,4.21971 -1.28071,4.14346 -2.45946,4.75217 1.73209,5.86215 l 3.2178,.8521 c 0.072956,1.36489 0.406541,2.74582 1.00075,4.1428 l -2.6432,2.1395 c -3.3959,2.74879 -1.94674,2.98298 0.497514,5.94313 2.64645,3.38586 2.50743,4.31622 5.78392,1.6641 l 2.6432,-2.1395 c 1.91339,1.21656 4.27267,1.98966 6.55657,2.2872 l .7734,3.1608 c 1.06281,4.34352 2.34751,2.721 5.99081,1.70299 4.06356,-1.121 5.49604,-0.377167 4.43595,-4.48835 l -.7814,-3.0305 c 0.27667,-0.244591 0.660801,-0.534882 0.937471,-0.779465 1.15239,-0.870881 2.0602,-2.01844 2.86055,-3.12027 l 3.0646,.7903 c 3.96887,1.58613 3.50537,-0.69613 4.55023,-4.21971 1.28071,-4.14346 2.45946,-4.75218 -1.73208,-5.86215 l -3.2178,-.8521 c -0.07295,-1.3649 -0.40654,-2.74582 -1.00075,-4.1428 l 2.6432,-2.1395 c 3.25074,-2.66518 1.86445,-3.08073 -0.497539,-5.94314 z  m -12.9679,18.1427 c -2.6432,2.13952 -6.59833,1.79143 -8.84531,-0.806068 -2.24697,-2.59749 -1.79143,-6.59832 0.806071,-8.84531 2.64321,-2.13952 6.59832,-1.79143 8.84531,0.806071 2.13952,2.64321 1.79143,6.59832 -0.80607,8.8453 z "/>
</g>
</svg>
