<svg width="16" version="1.1" xmlns="http://www.w3.org/2000/svg" height="16">
<defs id="defs1">
<style type="text/css" id="current-color-scheme">
.ColorScheme-Text {
color:#000;
}
</style>
</defs>
<path style="fill:currentColor;fill-opacity:1;stroke:none" id="path4" d="m 7.6455,1.0988 c -0.172147,0.609361 -0.291267,1.38125 -0.478359,1.98948 -0.118849,0.0185009 -0.241712,0.0164863 -0.360609,0.044156 -0.413474,0.0962109 -0.805745,0.250183 -1.16769,0.434203 -0.490799,-0.386498 -1.04457,-0.93106 -1.53811,-1.31733 -0.323649,0.212703 -0.622057,0.442017 -0.902751,0.701595 0.259589,0.570861 0.65506,1.24884 0.919923,1.83003 -0.354565,0.407958 -0.624067,0.839446 -0.834062,1.33695 -0.640088,0.0206273 -1.42479,-0.0330152 -2.05327,-0.0122711 -0.109226,0.365796 -0.182562,0.732741 -0.230594,1.11617 0.566006,0.270058 1.2994,0.524858 1.86438,0.792359 -0.00535,0.404969 0.031041,0.826712 0.127562,1.23883 0.027745,0.118456 0.087187,0.224003 0.122656,0.338531 -0.464315,0.43652 -1.11033,0.883852 -1.58227,1.30752 0.143587,0.325973 0.322518,0.649685 0.51025,0.944454 0.608617,-0.154699 1.33979,-0.434476 1.95514,-0.576485 0.346681,0.431752 0.743683,0.814722 1.20448,1.11127 -0.078186,0.630111 -0.266816,1.37733 -0.35325,1.9993 0.315983,0.156288 0.655931,0.274826 0.993517,0.382687 0.366462,-0.503972 0.738331,-1.18017 1.11863,-1.6902 0.520588,0.104571 1.06028,0.100337 1.60925,0.03434 0.343274,0.543724 0.695177,1.26222 1.03767,1.80305 0.374676,-0.08977 0.724971,-0.187679 1.06956,-0.331173 -0.04292,-0.634728 -0.186806,-1.41992 -0.237953,-2.07044 0.476388,-0.263677 0.933727,-0.565357 1.29525,-0.954267 0.60489,0.205159 1.29776,0.518545 1.884,0.704048 0.223033,-0.301291 0.426283,-0.623981 0.598562,-0.95672 -0.426435,-0.441829 -1.01703,-0.923988 -1.46942,-1.37375 0.189773,-0.495299 0.258305,-1.03731 0.284564,-1.57981 0.60785,-0.242286 1.37742,-0.45895 1.96741,-0.701594 -0.023563,-0.371481 -0.091123,-0.729381 -0.176625,-1.10391 -0.638179,-0.0665932 -1.43914,-0.0615252 -2.08025,-0.127562 -0.183711,-0.519859 -0.418735,-1.00141 -0.743298,-1.42036 0.290424,-0.565702 0.734311,-1.20332 1.02541,-1.75398 -0.246502,-0.253945 -0.502049,-0.505564 -0.782547,-0.718767 -0.521245,0.352646 -1.11384,0.853159 -1.64605,1.20203 -0.470786,-0.280521 -0.988847,-0.465171 -1.53075,-0.583845 -0.144756,-0.612807 -0.215312,-1.38938 -0.345892,-2.00175 -0.348277,-0.037201 -0.717651,-0.052799 -1.07447,-0.036797 Z  m .2576,4.45 c 1.18833,-0.032582 2.27782,0.766112 2.55861,1.96495 0.3209,1.37009 -0.5364,2.74165 -1.91099,3.0615 -1.37458,0.319851 -2.74797,-0.53351 -3.06886,-1.90362 -0.320897,-1.3701 0.533957,-2.73674 1.90853,-3.05659 0.171822,-0.039981 0.342944,-0.061581 0.512703,-0.066234 Z " class="ColorScheme-Text"/>
</svg>
