<svg width="16.0002" version="1.1" xmlns="http://www.w3.org/2000/svg" height="16">
<defs id="defs1">
<style type="text/css" id="current-color-scheme">
.ColorScheme-Text {
color:#000;
}
</style>
</defs>
<path style="fill:currentColor;fill-opacity:1;stroke:none" id="path27941-3" d="M 5.5,0 C 2.47472,0 0,2.4784 0,5.5 0,7.49861 1.0896419,9.2498244 2.7011719,10.208984 L 4.0625,8.6875 C 2.84138,8.14601 2,6.93077 2,5.5 2,3.55862 3.55626,2 5.5,2 6.8972,2 8.09519,2.79765 8.65625,3.96875 L 10.125,2.5 C 9.14008,0.99646 7.4222,0 5.5,0 Z M 14,0 13,1 c 1,0 2,1 2,2 L 16,2 C 16,1 15.24815,0 14,0 Z M 12,2 3.0019531,11 3,13 H 5 L 14,4 C 14,3 13,2 12,2 Z M 10.40625,8.96875 9,10.375 l 3.28125,3.3125 c 0.36811,0.37651 1.045465,0.383875 1.421875,0.01563 0.3764,-0.36822 0.383975,-1.045575 0.01563,-1.421875 z" class="ColorScheme-Text"/>
</svg>
