<svg width="16" version="1.1" xmlns="http://www.w3.org/2000/svg" height="15.999995">
<defs id="defs1">
<style type="text/css" id="current-color-scheme">
.ColorScheme-Text {
color:#000;
}
</style>
</defs>
<path style="fill:currentColor;fill-opacity:1;stroke:none" id="path4157" d="m 2.9336,1 c -0.50766,0.0395 -0.942484,0.517714 -0.933594,1.02734 v 12.9453 c -0.008,0.5398 0.486131,1.0352 1.02539,1.02734 h 9.94922 c 0.53926,0.008 1.03323,-0.487544 1.02539,-1.02734 v -9.95703 c -0.004,-0.26704 -0.118067,-0.531857 -0.310547,-0.716797 l -2.9844,-2.9863 c -0.18475,-0.19267 -0.448074,-0.30865 -0.714844,-0.3125 h -6.96484 c -0.0311,-0.00099 -0.0606968,-0.00099 -0.0917968,0 z  m 1.0879,2.0547 h 5.96875 v 1.99219 h -5.96875 v -1.99219 z  m 0,3.9824 h 7.95703 v 1.99219 h -7.95703 v -1.99219 z  m 0,3.9844 h 7.95703 v 1.99024 h -7.95703 v -1.99024 z " class="ColorScheme-Text"/>
</svg>
