<svg width="16" version="1.1" xmlns="http://www.w3.org/2000/svg" height="16">
<defs id="defs1">
<style type="text/css" id="current-color-scheme">
.ColorScheme-Text {
color:#000;
}
</style>
</defs>
<path style="fill:currentColor;fill-opacity:1;stroke:none" id="path27918" d="m 6.5078,1.0273 c -3.02886,0 -5.51172,2.47849 -5.51172,5.50391 0,3.02541 2.48286,5.50391 5.51172,5.50391 1.15423,0 2.22695,-0.361543 3.11523,-0.974609 l 3.6895,3.6895 a 1.00548,1.00548 0 1 0 1.40625,-1.4375 l -3.6738,-3.6738 c 0.611857,-0.886401 0.972656,-1.95646 0.972656,-3.10742 0,-3.02542 -2.48092,-5.50391 -5.50977,-5.50391 z m 0,2.0078 c 1.94735,0 3.5,1.55094 3.5,3.49609 0,1.94514 -1.55265,3.49609 -3.5,3.49609 -1.94736,0 -3.5,-1.55095 -3.5,-3.49609 0,-1.94515 1.55264,-3.49609 3.5,-3.49609 z" class="ColorScheme-Text"/>
</svg>
