<svg width="48" version="1.1" xmlns="http://www.w3.org/2000/svg" height="48">
<g style="stroke-linecap:round;image-rendering:auto;isolation:auto;fill-rule:evenodd;stroke-width:12;color-interpolation:sRGB;shape-rendering:auto;solid-opacity:1;stroke:none;text-rendering:auto;line-height:normal;color-rendering:auto;solid-color:#000000;text-transform:none;text-decoration-style:solid;mix-blend-mode:normal;font-family:sans-serif;white-space:normal;text-decoration-line:none;color:#000;text-align:start;text-decoration-color:#000000;text-indent:0">
<path style="opacity:.6;color-interpolation-filters:linearRGB;fill:#fff" id="path4140" d="m 7.3155,7.0894 a 5.69229,6.0006 0 0,0 -4.17986,10.209 l 7.4426,8.2012 -7.4426,8.2012 a 5.69229,6.0006 0 1,0 8.22633,8.29492 l 14.9704,-16.4961 -14.9705,-16.4961 a 5.69229,6.0006 0 0,0 -4.04646,-1.91406 Z "/>
<path style="color-interpolation-filters:linearRGB;fill:#919191" id="path4137" d="m 5.855,5.5898 a 5.73064,6.0006 0 0,0 -4.20802,10.209 l 7.4927,8.2012 -7.4927,8.2012 a 5.73064,6.0006 0 1,0 8.28174,8.29492 l 15.0713,-16.4961 -15.0713,-16.4961 a 5.73064,6.0006 0 0,0 -4.07372,-1.91406 Z "/>
<path style="opacity:.6;color-interpolation-filters:linearRGB;fill:#fff" id="path4156" d="m 28.9832,7.0894 a 5.69229,6.0006 0 0,0 -4.17986,10.209 l 7.4426,8.2012 -7.4426,8.2012 a 5.69229,6.0006 0 1,0 8.22633,8.29492 l 14.9704,-16.4961 -14.9705,-16.4961 a 5.69229,6.0006 0 0,0 -4.04646,-1.91406 Z "/>
<path style="color-interpolation-filters:linearRGB;fill:#919191" id="path4158" d="m 27.5226,5.5898 a 5.73064,6.0006 0 0,0 -4.20801,10.209 l 7.4927,8.2012 -7.4927,8.2012 a 5.73064,6.0006 0 1,0 8.28174,8.29492 l 15.0713,-16.4961 -15.0713,-16.4961 a 5.73064,6.0006 0 0,0 -4.07372,-1.91406 Z "/>
</g>
</svg>
