<svg width="48" version="1.1" xmlns="http://www.w3.org/2000/svg" height="48" viewBox="0 0 48 48">
<path style="fill:#fff" d="m 27.8024,3.2948 c -0.25,-0.25 -0.461574,-0.487478 -0.922552,-0.85626 -0.460979,-0.368784 -1.44743,-1.06342 -2.90576,-1.06342 -1.45834,0 -2.44479,0.69464 -2.90576,1.06342 -0.460979,0.368784 -0.672553,0.606262 -0.922551,0.85626 l -16.001,16.001 c -0.986053,0.986054 -1.69175,2.78403 -1.35069,4.36694 0.170532,0.791455 0.521759,1.49454 1.10485,2.11579 0.583096,0.621251 1.4226,1.34654 3.07564,1.34654 h 8 v 14.4989 c 0,0 -0.05513,1.08575 0.546905,2.28981 0.602025,1.20405 2.62061,2.71103 4.45394,2.71104 h 8.09899 c 1.83333,0 3.85191,-1.50698 4.45394,-2.71104 0.602025,-1.20405 0.546905,-2.28981 0.546905,-2.28981 v -14.4989 h 7.89952 c 2.23277,0 3.98211,-1.89262 4.26335,-3.67778 0.281244,-1.78516 -0.546863,-3.26481 -1.43355,-4.1515 z "/>
<path style="fill:#323232" d="m 40.9741,23.1243 c 0.3,0 0.531377,-0.468622 0,-1 l -16,-16 c -1,-1 -1,-1 -2,0 l -16,16 c -0.5190881,0.519088 -0.2,1 0,1 h 12 v 18.5006 c 0,0 0,1 1,1 h 8 c 1,0 1,-1 1,-1 V 23.1243 Z"/>
</svg>
