<svg width="48" version="1.1" xmlns="http://www.w3.org/2000/svg" height="48">
<g style="stroke-miterlimit:10;color:#000">
<path style="fill:#fff;stroke:#fff;stroke-linejoin:round;stroke-linecap:round;stroke-width:8" id="path6666" d="M 4,34 C 4.681411,16.4573 21,5 37,20 l 7,-8 c 0,0 0,23 0,23 H 21 c 0,0 8,-7 8,-7 C 16,15 6.7719,24.39854 4,34 Z"/>
<path style="fill:#323232;stroke:none" id="path2177" d="M 4,34 C 4.681411,16.4573 21,5 37,20 l 7,-8 c 0,0 0,23 0,23 H 21 c 0,0 8,-7 8,-7 C 16,15 6.7719,24.39854 4,34 Z"/>
</g>
</svg>
