<svg width="16" version="1.1" xmlns="http://www.w3.org/2000/svg" height="16">
<defs id="defs1">
<style type="text/css" id="current-color-scheme">
.ColorScheme-Text {
color:#000;
}
</style>
</defs>
<path style="fill:currentColor;fill-opacity:1;stroke:none" id="path2" d="m 10.1445,.0059 c -0.13706,0.48516 -0.231901,1.09972 -0.380859,1.58398 -0.43452,0.0157658 -0.858391,0.238533 -1.2168,0.380859 -0.390763,-0.307721 -0.831664,-0.741289 -1.22461,-1.04883 -0.257682,0.169349 -0.495268,0.351924 -0.71875,0.558594 0.206679,0.454507 0.521544,0.994298 0.732422,1.45703 -0.282297,0.324807 -0.496868,0.668348 -0.664062,1.06445 -0.509624,0.016423 -1.13439,-0.026286 -1.63477,-0.00977 -0.086963,0.291239 -0.145352,0.583392 -0.183594,0.888672 0.450641,0.215014 1.03455,0.41788 1.48438,0.630859 -0.0469181,0.477844 0.11207,0.851222 0.199218,1.25586 -0.369677,0.347547 -0.884021,0.703703 -1.25977,1.04102 0.114321,0.259532 0.256782,0.517265 0.40625,0.751953 0.484567,-0.123168 1.06671,-0.34592 1.55664,-0.458984 0.27602,0.343751 0.592104,0.648663 0.958984,0.884766 -0.06225,0.50168 -0.212433,1.0966 -0.28125,1.5918 0.251579,0.124433 0.522238,0.218811 0.791016,0.304687 0.291769,-0.401251 0.587843,-0.939628 0.890625,-1.3457 0.414481,0.083257 0.844169,0.079886 1.28125,0.027344 0.273307,0.432901 0.553484,1.00495 0.826172,1.43555 0.298309,-0.07147 0.577206,-0.149426 0.851563,-0.263672 -0.03417,-0.505357 -0.148731,-1.13051 -0.189453,-1.64844 0.37929,-0.209934 0.743413,-0.450125 1.03125,-0.759766 0.4816,0.163343 1.03325,0.412854 1.5,0.560547 0.177574,-0.239881 0.339397,-0.4968 0.476562,-0.761719 -0.339518,-0.351778 -0.809738,-0.735662 -1.16992,-1.09375 0.151093,-0.394346 0.205656,-0.825881 0.226563,-1.25781 0.483957,-0.192903 1.09667,-0.365406 1.56641,-0.558594 -0.01876,-0.295765 -0.07255,-0.580717 -0.140625,-0.878906 -0.508104,-0.05302 -1.14581,-0.048985 -1.65625,-0.101562 -0.146266,-0.4139 -0.333387,-0.797298 -0.591797,-1.13086 0.231229,-0.450399 0.584642,-0.958056 0.816406,-1.39648 -0.196259,-0.202185 -0.39972,-0.402519 -0.623046,-0.572266 -0.415004,0.280769 -0.886814,0.679266 -1.31055,0.957031 -0.374829,-0.223345 -0.787298,-0.370359 -1.21875,-0.464844 -0.115251,-0.487903 -0.171426,-1.10619 -0.275391,-1.59375 -0.277291,-0.0296184 -0.571378,-0.0420374 -0.855469,-0.0292969 Z  m .2051,3.543 c 0.946119,-0.025941 1.81355,0.609961 2.03711,1.56445 0.255491,1.09084 -0.427072,2.18284 -1.52149,2.4375 -1.09441,0.254657 -2.18787,-0.42477 -2.44336,-1.51562 -0.255491,-1.09084 0.425125,-2.17893 1.51953,-2.43359 0.136801,-0.031832 0.273044,-0.0490294 0.408203,-0.0527344 Z  m -7.3242,4.668 c -0.882549,0.276959 -0.93865,0.374178 -0.681672,1.40429 -0.286078,0.196601 -0.498707,0.503612 -0.705078,0.730468 -0.981942,-0.33803 -1.15958,-0.245765 -1.416,0.642563 -0.256422,0.888328 -0.104558,0.977528 0.919912,1.2539 0.013574,0.255252 0.074994,0.514138 0.185547,0.775391 -0.870463,0.611119 -0.991704,0.827908 -0.398403,1.51168 0.593301,0.683772 0.764225,0.560209 1.56837,-0.08785 0.355989,0.227513 0.793836,0.370136 1.21875,0.425781 0.179738,1.0508 0.363647,1.19464 1.25973,0.910159 0.896083,-0.28448 0.936304,-0.37613 0.679719,-1.40629 0.285658,-0.196805 0.500032,-0.50256 0.707031,-0.728515 0.940964,0.326969 1.20422,0.292994 1.416,-0.642563 0.211786,-0.935557 0.102554,-0.977893 -0.919966,-1.2559 -0.013575,-0.255255 -0.076947,-0.512181 -0.1875,-0.773441 0.871176,-0.612079 0.994366,-0.828915 0.400403,-1.51368 -0.593962,-0.684765 -0.764547,-0.55964 -1.56837,0.089853 -0.355987,-0.227512 -0.795796,-0.372088 -1.2207,-0.427734 -0.200699,-1.09822 -0.375224,-1.18507 -1.25777,-0.908112 Z  m .7636,2.5801 c 0.372386,-0.03591 0.758249,0.102648 1.01953,0.40625 0.39806,0.494313 0.332875,1.23408 -0.150391,1.6543 -0.49177,0.400119 -1.22647,0.333417 -1.64453,-0.152344 -0.418051,-0.485768 -0.334827,-1.23213 0.148438,-1.65234 0.184414,-0.150044 0.403521,-0.234307 0.626953,-0.255859 Z " class="ColorScheme-Text"/>
</svg>
