<svg width="48" version="1.1" xmlns="http://www.w3.org/2000/svg" height="48">
<g style="color:#000;stroke-width:3.5;isolation:auto;color-interpolation:sRGB;text-rendering:auto;solid-opacity:1;line-height:normal;stroke:none;shape-rendering:auto" id="g7">
<path style="fill:#8c8c8c;color-interpolation-filters:linearRGB" id="path4147" d="m 32.9549,13.7227 -18.8554,.0293 c -2.87145,0.0011 -5.17894,2.39353 -5.20312,5.24023 v 0.0078 10.0254 h -6.62105 c -1.30163,0 -2.27539,1.1252 -2.27539,2.30665 v 10.3613 c 0,1.18144 0.973769,2.30664 2.27539,2.30664 h 43.418 c 1.30161,0 2.30664,-1.00473 2.30664,-2.30664 v -10.3613 c 0,-1.30201 -1,-2.32461 -2.33008,-2.30664 h -7.55484 v -10.0195 c 0,-3.06027 -2.46017,-5.28696 -5.16016,-5.2832 z "/>
<path style="fill:#fff;color-interpolation-filters:linearRGB" id="path4160" d="m 33.459,16.2224 c 1.11859,-0.0014 2.14754,1.70863 2.15613,2.78344 v 12.5192 h 9.88438 v 9.975 h -43 v -9.975 h 8.89624 v -12.5036 c 0,-1.18864 1.03864,-2.76805 2.20554,-2.76977 z "/>
</g>
</svg>
