<svg width="16" version="1.1" xmlns="http://www.w3.org/2000/svg" height="16">
<defs id="defs1">
<style type="text/css" id="current-color-scheme">
.ColorScheme-Text {
color:#000;
}
</style>
</defs>
<path style="fill:currentColor;fill-opacity:1;stroke:none" id="path4597" d="M 12.00005,3 V 4.6875 C 11.6178,4.10954 11.15078,3.60527 10.5938,3.1875 9.43817,2.32073 8.06181,1.93523 6.7188,2 6.52694,2.009 6.34657,2.0353 6.1563,2.0625 4.63412,2.27991 3.17815,3.08554 2.18755,4.40625 0.20636,7.04769 0.76488,10.8313 3.4063,12.8125 c 2.64147,1.98122 6.42504,1.42267 8.40625,-1.21875 0.12369,-0.1731 0.18933,-0.38096 0.1875,-0.5937 0.003,-0.32623 0,-0.6647 0,-1 -0.32947,-3e-5 -0.67722,0 -0.9999,0 -0.32002,-10e-4 -0.62167,0.14934 -0.8125,0.40625 C 8.855,12.18304 6.37063,12.52017 4.5939,11.18755 2.81716,9.85491 2.48,7.37056 3.81265,5.5938 5.1453,3.81706 7.62965,3.47991 9.4064,4.81255 c 0.42946,0.32212 0.76954,0.73295 1.03125,1.1875 h -1.4375 c -1.20559,0 -1,0.93724 -1,2 h 6 v -6 C 12.80549,1.98855 12.00005,1.84666 12.00005,3 Z" class="ColorScheme-Text"/>
</svg>
